<svg width="679" height="332" viewBox="0 0 679 332" fill="none" xmlns="http://www.w3.org/2000/svg">
<path fill-rule="evenodd" clip-rule="evenodd" d="M512.177 332C603.857 332 678.177 257.679 678.177 166C678.177 74.3207 603.857 0 512.177 0C420.498 0 346.177 74.3207 346.177 166C346.177 257.679 420.498 332 512.177 332ZM512.177 306C589.497 306 652.177 243.32 652.177 166C652.177 88.6801 589.497 26 512.177 26C434.857 26 372.177 88.6801 372.177 166C372.177 169.316 372.293 172.606 372.519 175.865C397.532 164.856 418.16 158.339 435.208 155.419C457.086 151.672 474.146 153.679 486.939 160.953C499.957 168.355 506.662 180.12 509.946 191.787C511.706 198.039 512.549 204.463 512.882 210.551C518.813 200.833 526.325 188.335 535.825 172.53C543.749 159.347 553.056 143.864 563.982 125.773L490.393 143.814C484.224 145.327 477.997 141.552 476.485 135.383C474.973 129.215 478.747 122.988 484.916 121.476L585.439 96.831C591.608 95.3187 597.834 99.0933 599.347 105.262L623.991 205.785C625.504 211.954 621.729 218.18 615.561 219.693C609.392 221.205 603.165 217.43 601.653 211.262L583.627 137.737C573.376 154.712 564.497 169.484 556.813 182.266C534.716 219.026 522.507 239.337 515.998 248.326C514.708 250.107 513.425 251.754 512.169 253.114C511.231 254.129 509.117 256.348 506.06 257.576C504.279 258.291 501.317 259.011 497.891 258.007C494.343 256.967 492.135 254.623 490.94 252.731C489.024 249.699 488.805 246.439 488.734 245.383L488.733 245.362C488.54 242.488 488.839 238.713 489.092 235.525C489.13 235.05 489.169 234.568 489.208 234.081C489.465 230.892 489.743 227.446 489.911 223.721C490.304 215.047 490.032 205.925 487.807 198.019C485.641 190.327 481.863 184.526 475.57 180.947C469.053 177.241 457.974 174.855 439.091 178.089C423.264 180.799 402.709 187.34 376.192 199.422C391.177 260.604 446.376 306 512.177 306ZM495.045 237.735C495.046 237.73 495.099 237.673 495.204 237.582C495.097 237.695 495.044 237.741 495.045 237.735ZM511.676 243.739C511.723 244.047 511.701 244.111 511.681 243.818C511.679 243.793 511.678 243.767 511.676 243.739ZM28.96 106.2C28.32 107.24 26.76 107.76 24.28 107.76H15.04V111.48C15.04 112.76 15.2 113.64 15.52 114.12C15.92 114.52 16.76 114.72 18.04 114.72H28.12C32.28 114.72 35.2 113.88 36.88 112.2C38.64 110.44 39.52 107.48 39.52 103.32V77.4C39.52 73.24 38.64 70.32 36.88 68.64C35.2 66.88 32.28 66 28.12 66H3.88002C2.60001 66 1.72001 66.24 1.24002 66.72C0.840015 67.12 0.640015 67.96 0.640015 69.24V150H7.00001C8.28001 150 9.12002 149.8 9.52002 149.4C10 148.92 10.24 148.04 10.24 146.76V72.96H24.28C26.76 72.96 28.32 73.48 28.96 74.52C29.6 75.56 29.92 77.32 29.92 79.8V100.92C29.92 103.4 29.6 105.16 28.96 106.2ZM62.8375 146.76V96H78.9175V92.28C78.9175 91 78.7175 90.16 78.3175 89.76C77.9975 89.28 77.1975 89.04 75.9175 89.04H71.2375C68.9175 89.04 67.1975 89.52 66.0775 90.48C64.9575 91.44 63.8775 93.28 62.8375 96V89.04H56.4775C55.1975 89.04 54.3175 89.28 53.8375 89.76C53.4375 90.16 53.2375 91 53.2375 92.28V150H59.5975C60.8775 150 61.7175 149.8 62.1175 149.4C62.5975 148.92 62.8375 148.04 62.8375 146.76ZM92.666 91.68C90.986 93.36 90.1459 96.28 90.1459 100.44V138.6C90.1459 142.76 90.986 145.72 92.666 147.48C94.426 149.16 97.386 150 101.546 150H118.346C122.506 150 125.426 149.16 127.106 147.48C128.866 145.72 129.746 142.76 129.746 138.6V100.44C129.746 96.28 128.866 93.36 127.106 91.68C125.426 89.92 122.506 89.04 118.346 89.04H101.546C97.386 89.04 94.426 89.92 92.666 91.68ZM100.706 97.56C101.346 96.52 102.906 96 105.386 96H114.506C116.986 96 118.546 96.52 119.186 97.56C119.826 98.6 120.146 100.36 120.146 102.84V136.2C120.146 138.68 119.826 140.44 119.186 141.48C118.546 142.52 116.986 143.04 114.506 143.04H105.386C102.906 143.04 101.346 142.52 100.706 141.48C100.066 140.44 99.746 138.68 99.746 136.2V102.84C99.746 100.36 100.066 98.6 100.706 97.56ZM145.713 89.76C145.313 90.16 145.113 91 145.113 92.28V174.12C148.313 173.48 150.713 172.48 152.313 171.12C153.913 169.76 154.713 167.44 154.713 164.16V89.04H148.353C147.073 89.04 146.193 89.28 145.713 89.76ZM145.233 73.68C144.833 74.08 144.633 74.92 144.633 76.2V82.56H151.953C153.233 82.56 154.073 82.36 154.473 81.96C154.953 81.48 155.193 80.6 155.193 79.32V72.96H147.873C146.593 72.96 145.713 73.2 145.233 73.68ZM202.705 146.76V143.04H185.425C182.945 143.04 181.385 142.52 180.745 141.48C180.105 140.44 179.785 138.68 179.785 136.2V102.84C179.785 100.12 180.145 98.32 180.865 97.44C181.585 96.48 183.265 96 185.905 96H191.065C193.545 96 195.185 96.44 195.985 97.32C196.785 98.12 197.185 99.76 197.185 102.24V111.48C197.185 113.96 196.865 115.72 196.225 116.76C195.585 117.8 194.025 118.32 191.545 118.32H184.585V122.04C184.585 123.32 184.745 124.2 185.065 124.68C185.465 125.08 186.305 125.28 187.585 125.28H194.785C198.945 125.28 201.865 124.44 203.545 122.76C205.305 121 206.185 118.04 206.185 113.88V100.44C206.185 96.28 205.305 93.36 203.545 91.68C201.865 89.92 198.945 89.04 194.785 89.04H181.585C177.425 89.04 174.465 89.92 172.705 91.68C171.025 93.36 170.185 96.28 170.185 100.44V138.6C170.185 142.76 171.025 145.72 172.705 147.48C174.465 149.16 177.425 150 181.585 150H199.705C200.985 150 201.785 149.8 202.105 149.4C202.505 148.92 202.705 148.04 202.705 146.76ZM249.155 89.76C248.835 89.28 248.035 89.04 246.755 89.04H231.155C226.995 89.04 224.035 89.92 222.275 91.68C220.595 93.36 219.755 96.28 219.755 100.44V138.6C219.755 142.76 220.595 145.72 222.275 147.48C224.035 149.16 226.995 150 231.155 150H246.755C248.035 150 248.835 149.8 249.155 149.4C249.555 148.92 249.755 148.04 249.755 146.76V143.04H234.995C232.515 143.04 230.955 142.52 230.315 141.48C229.675 140.44 229.355 138.68 229.355 136.2V102.84C229.355 100.36 229.675 98.6 230.315 97.56C230.955 96.52 232.515 96 234.995 96H249.755V92.28C249.755 91 249.555 90.16 249.155 89.76ZM286.532 89.76C286.212 89.28 285.412 89.04 284.132 89.04H272.372V75.12H266.012C264.732 75.12 263.852 75.36 263.372 75.84C262.972 76.24 262.772 77.08 262.772 78.36V138.6C262.772 142.76 263.612 145.72 265.292 147.48C267.052 149.16 270.012 150 274.172 150H282.452C284.772 150 286.292 149.44 287.012 148.32C287.812 147.12 288.292 145.36 288.452 143.04H278.012C275.532 143.04 273.972 142.52 273.332 141.48C272.692 140.44 272.372 138.68 272.372 136.2V96H287.132V92.28C287.132 91 286.932 90.16 286.532 89.76ZM10.24 281.04V247.92H26.56C27.84 247.92 28.64 247.72 28.96 247.32C29.36 246.84 29.56 245.96 29.56 244.68V240.96H10.24V210.96H30.16C31.44 210.96 32.24 210.76 32.56 210.36C32.96 209.88 33.16 209 33.16 207.72V204H3.88002C2.60001 204 1.72001 204.24 1.24002 204.72C0.840015 205.12 0.640015 205.96 0.640015 207.24V288H29.92C31.2 288 32.04 287.8 32.44 287.4C32.92 286.92 33.16 286.04 33.16 284.76V281.04H10.24ZM62.6406 250.92L59.4006 242.76L50.8806 227.04H45.0006C43.5606 227.04 42.7606 227.36 42.6006 228C42.5206 228.64 42.6806 229.28 43.0806 229.92L57.3606 256.56L43.2006 285.12C42.8006 285.76 42.6406 286.4 42.7206 287.04C42.8806 287.68 43.6806 288 45.1206 288H51.2406L58.9206 271.44L62.0406 263.16H62.7606L66.1206 271.44L75.1206 288H81.0006C82.4406 288 83.2006 287.68 83.2806 287.04C83.4406 286.4 83.3206 285.76 82.9206 285.12L67.4406 257.76L82.6806 229.92C83.0806 229.28 83.2006 228.64 83.0406 228C82.9606 227.36 82.2006 227.04 80.7606 227.04H74.6406L66.7206 242.76L63.3606 250.92H62.6406ZM132.033 229.68C130.353 227.92 127.433 227.04 123.273 227.04H112.473C111.193 227.04 110.353 227.28 109.953 227.76C109.633 228.16 109.473 229 109.473 230.28V234H119.433C121.913 234 123.473 234.52 124.113 235.56C124.753 236.6 125.073 238.36 125.073 240.84V274.2C125.073 276.68 124.753 278.44 124.113 279.48C123.473 280.52 121.913 281.04 119.433 281.04H104.673V227.04H98.3135C97.0335 227.04 96.1534 227.28 95.6735 227.76C95.2735 228.16 95.0735 229 95.0735 230.28V312.12H101.433C102.713 312.12 103.553 311.88 103.953 311.4C104.433 311 104.673 310.16 104.673 308.88V281.04C105.153 283.36 105.873 285.12 106.833 286.32C107.873 287.44 109.553 288 111.873 288H123.273C127.433 288 130.353 287.16 132.033 285.48C133.793 283.72 134.673 280.76 134.673 276.6V238.44C134.673 234.28 133.793 231.36 132.033 229.68ZM182.314 284.76V281.04H165.034C162.554 281.04 160.994 280.52 160.354 279.48C159.714 278.44 159.394 276.68 159.394 274.2V240.84C159.394 238.12 159.754 236.32 160.474 235.44C161.194 234.48 162.874 234 165.514 234H170.674C173.154 234 174.794 234.44 175.594 235.32C176.394 236.12 176.794 237.76 176.794 240.24V249.48C176.794 251.96 176.474 253.72 175.834 254.76C175.194 255.8 173.634 256.32 171.154 256.32H164.194V260.04C164.194 261.32 164.354 262.2 164.674 262.68C165.074 263.08 165.914 263.28 167.194 263.28H174.394C178.554 263.28 181.474 262.44 183.154 260.76C184.914 259 185.794 256.04 185.794 251.88V238.44C185.794 234.28 184.914 231.36 183.154 229.68C181.474 227.92 178.554 227.04 174.394 227.04H161.194C157.034 227.04 154.074 227.92 152.314 229.68C150.634 231.36 149.794 234.28 149.794 238.44V276.6C149.794 280.76 150.634 283.72 152.314 285.48C154.074 287.16 157.034 288 161.194 288H179.314C180.594 288 181.394 287.8 181.714 287.4C182.114 286.92 182.314 286.04 182.314 284.76ZM209.205 284.76V234H225.285V230.28C225.285 229 225.085 228.16 224.685 227.76C224.365 227.28 223.565 227.04 222.285 227.04H217.605C215.285 227.04 213.565 227.52 212.445 228.48C211.325 229.44 210.245 231.28 209.205 234V227.04H202.845C201.565 227.04 200.685 227.28 200.205 227.76C199.805 228.16 199.605 229 199.605 230.28V288H205.965C207.245 288 208.085 287.8 208.485 287.4C208.965 286.92 209.205 286.04 209.205 284.76ZM260.633 227.76C260.313 227.28 259.513 227.04 258.233 227.04H246.473V213.12H240.113C238.833 213.12 237.953 213.36 237.473 213.84C237.073 214.24 236.873 215.08 236.873 216.36V276.6C236.873 280.76 237.713 283.72 239.393 285.48C241.153 287.16 244.113 288 248.273 288H256.553C258.873 288 260.393 287.44 261.113 286.32C261.913 285.12 262.393 283.36 262.553 281.04H252.113C249.633 281.04 248.073 280.52 247.433 279.48C246.793 278.44 246.473 276.68 246.473 274.2V234H261.233V230.28C261.233 229 261.033 228.16 260.633 227.76ZM277.278 260.52C278.638 260.84 280.358 261 282.438 261H289.278C291.758 261 293.318 261.52 293.958 262.56C294.598 263.6 294.918 265.36 294.918 267.84V274.2C294.918 276.68 294.598 278.44 293.958 279.48C293.318 280.52 291.758 281.04 289.278 281.04H272.238V284.76C272.238 286.04 272.398 286.92 272.718 287.4C273.118 287.8 273.958 288 275.238 288H292.518C296.678 288 299.598 287.16 301.278 285.48C303.038 283.72 303.918 280.76 303.918 276.6V264.72C303.918 262.64 303.758 260.92 303.438 259.56C303.198 258.2 302.678 257.12 301.878 256.32C301.158 255.44 300.118 254.84 298.758 254.52C297.478 254.2 295.798 254.04 293.718 254.04H286.878C285.678 254.04 284.678 253.96 283.878 253.8C283.158 253.64 282.598 253.32 282.198 252.84C281.798 252.36 281.518 251.68 281.358 250.8C281.278 249.84 281.238 248.64 281.238 247.2V240.84C281.238 238.36 281.558 236.6 282.198 235.56C282.838 234.52 284.398 234 286.878 234H302.718V230.28C302.718 229 302.518 228.16 302.118 227.76C301.798 227.28 300.998 227.04 299.718 227.04H283.638C279.478 227.04 276.518 227.92 274.758 229.68C273.078 231.36 272.238 234.28 272.238 238.44V250.32C272.238 252.4 272.358 254.12 272.598 255.48C272.918 256.84 273.438 257.96 274.158 258.84C274.958 259.64 275.998 260.2 277.278 260.52Z" fill="#A682FF"/>
<path fill-rule="evenodd" clip-rule="evenodd" d="M512.177 332C603.857 332 678.177 257.679 678.177 166C678.177 74.3207 603.857 0 512.177 0C420.498 0 346.177 74.3207 346.177 166C346.177 257.679 420.498 332 512.177 332ZM512.177 306C589.497 306 652.177 243.32 652.177 166C652.177 88.6801 589.497 26 512.177 26C434.857 26 372.177 88.6801 372.177 166C372.177 169.316 372.293 172.606 372.519 175.865C397.532 164.856 418.16 158.339 435.208 155.419C457.086 151.672 474.146 153.679 486.939 160.953C499.957 168.355 506.662 180.12 509.946 191.787C511.706 198.039 512.549 204.463 512.882 210.551C518.813 200.833 526.325 188.335 535.825 172.53C543.749 159.347 553.056 143.864 563.982 125.773L490.393 143.814C484.224 145.327 477.997 141.552 476.485 135.383C474.973 129.215 478.747 122.988 484.916 121.476L585.439 96.831C591.608 95.3187 597.834 99.0933 599.347 105.262L623.991 205.785C625.504 211.954 621.729 218.18 615.561 219.693C609.392 221.205 603.165 217.43 601.653 211.262L583.627 137.737C573.376 154.712 564.497 169.484 556.813 182.266C534.716 219.026 522.507 239.337 515.998 248.326C514.708 250.107 513.425 251.754 512.169 253.114C511.231 254.129 509.117 256.348 506.06 257.576C504.279 258.291 501.317 259.011 497.891 258.007C494.343 256.967 492.135 254.623 490.94 252.731C489.024 249.699 488.805 246.439 488.734 245.383L488.733 245.362C488.54 242.488 488.839 238.713 489.092 235.525C489.13 235.05 489.169 234.568 489.208 234.081C489.465 230.892 489.743 227.446 489.911 223.721C490.304 215.047 490.032 205.925 487.807 198.019C485.641 190.327 481.863 184.526 475.57 180.947C469.053 177.241 457.974 174.855 439.091 178.089C423.264 180.799 402.709 187.34 376.192 199.422C391.177 260.604 446.376 306 512.177 306ZM495.045 237.735C495.046 237.73 495.099 237.673 495.204 237.582C495.097 237.695 495.044 237.741 495.045 237.735ZM511.676 243.739C511.723 244.047 511.701 244.111 511.681 243.818C511.679 243.793 511.678 243.767 511.676 243.739ZM28.96 106.2C28.32 107.24 26.76 107.76 24.28 107.76H15.04V111.48C15.04 112.76 15.2 113.64 15.52 114.12C15.92 114.52 16.76 114.72 18.04 114.72H28.12C32.28 114.72 35.2 113.88 36.88 112.2C38.64 110.44 39.52 107.48 39.52 103.32V77.4C39.52 73.24 38.64 70.32 36.88 68.64C35.2 66.88 32.28 66 28.12 66H3.88002C2.60001 66 1.72001 66.24 1.24002 66.72C0.840015 67.12 0.640015 67.96 0.640015 69.24V150H7.00001C8.28001 150 9.12002 149.8 9.52002 149.4C10 148.92 10.24 148.04 10.24 146.76V72.96H24.28C26.76 72.96 28.32 73.48 28.96 74.52C29.6 75.56 29.92 77.32 29.92 79.8V100.92C29.92 103.4 29.6 105.16 28.96 106.2ZM62.8375 146.76V96H78.9175V92.28C78.9175 91 78.7175 90.16 78.3175 89.76C77.9975 89.28 77.1975 89.04 75.9175 89.04H71.2375C68.9175 89.04 67.1975 89.52 66.0775 90.48C64.9575 91.44 63.8775 93.28 62.8375 96V89.04H56.4775C55.1975 89.04 54.3175 89.28 53.8375 89.76C53.4375 90.16 53.2375 91 53.2375 92.28V150H59.5975C60.8775 150 61.7175 149.8 62.1175 149.4C62.5975 148.92 62.8375 148.04 62.8375 146.76ZM92.666 91.68C90.986 93.36 90.1459 96.28 90.1459 100.44V138.6C90.1459 142.76 90.986 145.72 92.666 147.48C94.426 149.16 97.386 150 101.546 150H118.346C122.506 150 125.426 149.16 127.106 147.48C128.866 145.72 129.746 142.76 129.746 138.6V100.44C129.746 96.28 128.866 93.36 127.106 91.68C125.426 89.92 122.506 89.04 118.346 89.04H101.546C97.386 89.04 94.426 89.92 92.666 91.68ZM100.706 97.56C101.346 96.52 102.906 96 105.386 96H114.506C116.986 96 118.546 96.52 119.186 97.56C119.826 98.6 120.146 100.36 120.146 102.84V136.2C120.146 138.68 119.826 140.44 119.186 141.48C118.546 142.52 116.986 143.04 114.506 143.04H105.386C102.906 143.04 101.346 142.52 100.706 141.48C100.066 140.44 99.746 138.68 99.746 136.2V102.84C99.746 100.36 100.066 98.6 100.706 97.56ZM145.713 89.76C145.313 90.16 145.113 91 145.113 92.28V174.12C148.313 173.48 150.713 172.48 152.313 171.12C153.913 169.76 154.713 167.44 154.713 164.16V89.04H148.353C147.073 89.04 146.193 89.28 145.713 89.76ZM145.233 73.68C144.833 74.08 144.633 74.92 144.633 76.2V82.56H151.953C153.233 82.56 154.073 82.36 154.473 81.96C154.953 81.48 155.193 80.6 155.193 79.32V72.96H147.873C146.593 72.96 145.713 73.2 145.233 73.68ZM202.705 146.76V143.04H185.425C182.945 143.04 181.385 142.52 180.745 141.48C180.105 140.44 179.785 138.68 179.785 136.2V102.84C179.785 100.12 180.145 98.32 180.865 97.44C181.585 96.48 183.265 96 185.905 96H191.065C193.545 96 195.185 96.44 195.985 97.32C196.785 98.12 197.185 99.76 197.185 102.24V111.48C197.185 113.96 196.865 115.72 196.225 116.76C195.585 117.8 194.025 118.32 191.545 118.32H184.585V122.04C184.585 123.32 184.745 124.2 185.065 124.68C185.465 125.08 186.305 125.28 187.585 125.28H194.785C198.945 125.28 201.865 124.44 203.545 122.76C205.305 121 206.185 118.04 206.185 113.88V100.44C206.185 96.28 205.305 93.36 203.545 91.68C201.865 89.92 198.945 89.04 194.785 89.04H181.585C177.425 89.04 174.465 89.92 172.705 91.68C171.025 93.36 170.185 96.28 170.185 100.44V138.6C170.185 142.76 171.025 145.72 172.705 147.48C174.465 149.16 177.425 150 181.585 150H199.705C200.985 150 201.785 149.8 202.105 149.4C202.505 148.92 202.705 148.04 202.705 146.76ZM249.155 89.76C248.835 89.28 248.035 89.04 246.755 89.04H231.155C226.995 89.04 224.035 89.92 222.275 91.68C220.595 93.36 219.755 96.28 219.755 100.44V138.6C219.755 142.76 220.595 145.72 222.275 147.48C224.035 149.16 226.995 150 231.155 150H246.755C248.035 150 248.835 149.8 249.155 149.4C249.555 148.92 249.755 148.04 249.755 146.76V143.04H234.995C232.515 143.04 230.955 142.52 230.315 141.48C229.675 140.44 229.355 138.68 229.355 136.2V102.84C229.355 100.36 229.675 98.6 230.315 97.56C230.955 96.52 232.515 96 234.995 96H249.755V92.28C249.755 91 249.555 90.16 249.155 89.76ZM286.532 89.76C286.212 89.28 285.412 89.04 284.132 89.04H272.372V75.12H266.012C264.732 75.12 263.852 75.36 263.372 75.84C262.972 76.24 262.772 77.08 262.772 78.36V138.6C262.772 142.76 263.612 145.72 265.292 147.48C267.052 149.16 270.012 150 274.172 150H282.452C284.772 150 286.292 149.44 287.012 148.32C287.812 147.12 288.292 145.36 288.452 143.04H278.012C275.532 143.04 273.972 142.52 273.332 141.48C272.692 140.44 272.372 138.68 272.372 136.2V96H287.132V92.28C287.132 91 286.932 90.16 286.532 89.76ZM10.24 281.04V247.92H26.56C27.84 247.92 28.64 247.72 28.96 247.32C29.36 246.84 29.56 245.96 29.56 244.68V240.96H10.24V210.96H30.16C31.44 210.96 32.24 210.76 32.56 210.36C32.96 209.88 33.16 209 33.16 207.72V204H3.88002C2.60001 204 1.72001 204.24 1.24002 204.72C0.840015 205.12 0.640015 205.96 0.640015 207.24V288H29.92C31.2 288 32.04 287.8 32.44 287.4C32.92 286.92 33.16 286.04 33.16 284.76V281.04H10.24ZM62.6406 250.92L59.4006 242.76L50.8806 227.04H45.0006C43.5606 227.04 42.7606 227.36 42.6006 228C42.5206 228.64 42.6806 229.28 43.0806 229.92L57.3606 256.56L43.2006 285.12C42.8006 285.76 42.6406 286.4 42.7206 287.04C42.8806 287.68 43.6806 288 45.1206 288H51.2406L58.9206 271.44L62.0406 263.16H62.7606L66.1206 271.44L75.1206 288H81.0006C82.4406 288 83.2006 287.68 83.2806 287.04C83.4406 286.4 83.3206 285.76 82.9206 285.12L67.4406 257.76L82.6806 229.92C83.0806 229.28 83.2006 228.64 83.0406 228C82.9606 227.36 82.2006 227.04 80.7606 227.04H74.6406L66.7206 242.76L63.3606 250.92H62.6406ZM132.033 229.68C130.353 227.92 127.433 227.04 123.273 227.04H112.473C111.193 227.04 110.353 227.28 109.953 227.76C109.633 228.16 109.473 229 109.473 230.28V234H119.433C121.913 234 123.473 234.52 124.113 235.56C124.753 236.6 125.073 238.36 125.073 240.84V274.2C125.073 276.68 124.753 278.44 124.113 279.48C123.473 280.52 121.913 281.04 119.433 281.04H104.673V227.04H98.3135C97.0335 227.04 96.1534 227.28 95.6735 227.76C95.2735 228.16 95.0735 229 95.0735 230.28V312.12H101.433C102.713 312.12 103.553 311.88 103.953 311.4C104.433 311 104.673 310.16 104.673 308.88V281.04C105.153 283.36 105.873 285.12 106.833 286.32C107.873 287.44 109.553 288 111.873 288H123.273C127.433 288 130.353 287.16 132.033 285.48C133.793 283.72 134.673 280.76 134.673 276.6V238.44C134.673 234.28 133.793 231.36 132.033 229.68ZM182.314 284.76V281.04H165.034C162.554 281.04 160.994 280.52 160.354 279.48C159.714 278.44 159.394 276.68 159.394 274.2V240.84C159.394 238.12 159.754 236.32 160.474 235.44C161.194 234.48 162.874 234 165.514 234H170.674C173.154 234 174.794 234.44 175.594 235.32C176.394 236.12 176.794 237.76 176.794 240.24V249.48C176.794 251.96 176.474 253.72 175.834 254.76C175.194 255.8 173.634 256.32 171.154 256.32H164.194V260.04C164.194 261.32 164.354 262.2 164.674 262.68C165.074 263.08 165.914 263.28 167.194 263.28H174.394C178.554 263.28 181.474 262.44 183.154 260.76C184.914 259 185.794 256.04 185.794 251.88V238.44C185.794 234.28 184.914 231.36 183.154 229.68C181.474 227.92 178.554 227.04 174.394 227.04H161.194C157.034 227.04 154.074 227.92 152.314 229.68C150.634 231.36 149.794 234.28 149.794 238.44V276.6C149.794 280.76 150.634 283.72 152.314 285.48C154.074 287.16 157.034 288 161.194 288H179.314C180.594 288 181.394 287.8 181.714 287.4C182.114 286.92 182.314 286.04 182.314 284.76ZM209.205 284.76V234H225.285V230.28C225.285 229 225.085 228.16 224.685 227.76C224.365 227.28 223.565 227.04 222.285 227.04H217.605C215.285 227.04 213.565 227.52 212.445 228.48C211.325 229.44 210.245 231.28 209.205 234V227.04H202.845C201.565 227.04 200.685 227.28 200.205 227.76C199.805 228.16 199.605 229 199.605 230.28V288H205.965C207.245 288 208.085 287.8 208.485 287.4C208.965 286.92 209.205 286.04 209.205 284.76ZM260.633 227.76C260.313 227.28 259.513 227.04 258.233 227.04H246.473V213.12H240.113C238.833 213.12 237.953 213.36 237.473 213.84C237.073 214.24 236.873 215.08 236.873 216.36V276.6C236.873 280.76 237.713 283.72 239.393 285.48C241.153 287.16 244.113 288 248.273 288H256.553C258.873 288 260.393 287.44 261.113 286.32C261.913 285.12 262.393 283.36 262.553 281.04H252.113C249.633 281.04 248.073 280.52 247.433 279.48C246.793 278.44 246.473 276.68 246.473 274.2V234H261.233V230.28C261.233 229 261.033 228.16 260.633 227.76ZM277.278 260.52C278.638 260.84 280.358 261 282.438 261H289.278C291.758 261 293.318 261.52 293.958 262.56C294.598 263.6 294.918 265.36 294.918 267.84V274.2C294.918 276.68 294.598 278.44 293.958 279.48C293.318 280.52 291.758 281.04 289.278 281.04H272.238V284.76C272.238 286.04 272.398 286.92 272.718 287.4C273.118 287.8 273.958 288 275.238 288H292.518C296.678 288 299.598 287.16 301.278 285.48C303.038 283.72 303.918 280.76 303.918 276.6V264.72C303.918 262.64 303.758 260.92 303.438 259.56C303.198 258.2 302.678 257.12 301.878 256.32C301.158 255.44 300.118 254.84 298.758 254.52C297.478 254.2 295.798 254.04 293.718 254.04H286.878C285.678 254.04 284.678 253.96 283.878 253.8C283.158 253.64 282.598 253.32 282.198 252.84C281.798 252.36 281.518 251.68 281.358 250.8C281.278 249.84 281.238 248.64 281.238 247.2V240.84C281.238 238.36 281.558 236.6 282.198 235.56C282.838 234.52 284.398 234 286.878 234H302.718V230.28C302.718 229 302.518 228.16 302.118 227.76C301.798 227.28 300.998 227.04 299.718 227.04H283.638C279.478 227.04 276.518 227.92 274.758 229.68C273.078 231.36 272.238 234.28 272.238 238.44V250.32C272.238 252.4 272.358 254.12 272.598 255.48C272.918 256.84 273.438 257.96 274.158 258.84C274.958 259.64 275.998 260.2 277.278 260.52Z" fill="url(#paint0_linear)"/>
<defs>
<linearGradient id="paint0_linear" x1="524.816" y1="0.000351246" x2="524.816" y2="479.345" gradientUnits="userSpaceOnUse">
<stop stop-color="#8C12EC"/>
<stop offset="0.0001"/>
<stop offset="0.526042" stop-opacity="0.15"/>
</linearGradient>
</defs>
</svg>
